<?xml version="1.0" encoding="UTF-8"?>
<!DOCTYPE svg PUBLIC "-//W3C//DTD SVG 1.1//EN" "http://www.w3.org/Graphics/SVG/1.1/DTD/svg11.dtd">
<svg xmlns="http://www.w3.org/2000/svg" version="1.1" width="512px" height="512px" style="shape-rendering:geometricPrecision; text-rendering:geometricPrecision; image-rendering:optimizeQuality; fill-rule:evenodd; clip-rule:evenodd" xmlns:xlink="http://www.w3.org/1999/xlink">
<g><path style="opacity:0.946" fill="white" d="M 333.5,32.5 C 343.172,32.3335 352.839,32.5002 362.5,33C 374.326,38.2297 379.326,47.3963 377.5,60.5C 385.653,63.1619 393.486,66.4953 401,70.5C 403.784,68.7201 406.284,66.5535 408.5,64C 416.927,58.4174 425.593,58.0841 434.5,63C 441.679,68.5134 447.846,75.0134 453,82.5C 454.936,88.1817 454.936,93.8484 453,99.5C 450.252,104.252 446.752,108.419 442.5,112C 446.811,119.786 450.144,127.952 452.5,136.5C 473.342,135.009 482.675,144.675 480.5,165.5C 482.509,186.825 472.842,196.491 451.5,194.5C 449.57,203.365 446.237,211.698 441.5,219.5C 445.186,223.352 448.686,227.352 452,231.5C 454.805,239.95 453.472,247.617 448,254.5C 442.532,258.967 437.365,263.8 432.5,269C 425.167,272.333 417.833,272.333 410.5,269C 407.333,265.833 404.167,262.667 401,259.5C 392.901,263.716 384.568,267.383 376,270.5C 377.723,281.017 374.556,289.517 366.5,296C 364.913,296.862 363.246,297.529 361.5,298C 351.833,298.667 342.167,298.667 332.5,298C 325.763,296.264 321.263,292.097 319,285.5C 317.988,280.157 317.488,274.99 317.5,270C 308.806,267.736 300.639,264.236 293,259.5C 285.613,271.438 275.446,274.604 262.5,269C 256.306,262.806 250.14,256.64 244,250.5C 240.405,242.645 240.739,234.978 245,227.5C 247.833,224.667 250.667,221.833 253.5,219C 249.028,211.389 245.362,203.389 242.5,195C 221.645,195.98 212.312,186.147 214.5,165.5C 212.463,144.204 222.129,134.537 243.5,136.5C 245.297,127.735 248.63,119.569 253.5,112C 248.525,108.03 244.691,103.197 242,97.5C 240.699,91.0417 241.699,85.0417 245,79.5C 251.236,72.5934 258.069,66.4267 265.5,61C 272.952,58.636 279.952,59.636 286.5,64C 289.016,66.6833 291.683,69.1833 294.5,71.5C 302.257,66.7903 310.59,63.457 319.5,61.5C 316.522,47.7943 321.189,38.1276 333.5,32.5 Z M 336.5,50.5 C 343.175,50.3337 349.842,50.5004 356.5,51C 357.314,57.7529 357.814,64.5863 358,71.5C 358.465,72.9308 359.299,74.0975 360.5,75C 367.44,77.4857 374.44,79.8191 381.5,82C 388.636,85.6519 395.803,89.1519 403,92.5C 404.5,92 406,91.5 407.5,91C 412.201,86.6342 416.534,81.9675 420.5,77C 426.138,80.4544 431.138,84.9544 435.5,90.5C 431.515,94.9851 427.349,99.3184 423,103.5C 421.888,105.39 421.054,107.39 420.5,109.5C 424.197,116.71 427.697,124.043 431,131.5C 432.821,138.799 435.321,145.799 438.5,152.5C 439.912,153.806 441.579,154.64 443.5,155C 449.5,155.333 455.5,155.667 461.5,156C 462.025,156.692 462.692,157.192 463.5,157.5C 464.809,163.722 464.809,169.889 463.5,176C 456.5,176.333 449.5,176.667 442.5,177C 441.5,177.833 440.5,178.667 439.5,179.5C 437.026,186 434.859,192.667 433,199.5C 429.922,205.991 426.588,212.325 423,218.5C 422.245,221.303 422.578,223.97 424,226.5C 427.314,230.981 431.148,234.981 435.5,238.5C 436.614,239.723 436.781,241.056 436,242.5C 431.955,246.881 427.622,250.881 423,254.5C 418.211,250.714 413.711,246.547 409.5,242C 406.298,240.517 402.964,240.183 399.5,241C 387.795,248.516 375.129,253.849 361.5,257C 360.789,258.255 359.956,259.421 359,260.5C 358.815,267.747 358.315,274.913 357.5,282C 351.167,282.667 344.833,282.667 338.5,282C 337.686,275.247 337.186,268.414 337,261.5C 336.417,259.998 335.584,258.665 334.5,257.5C 320.972,254.044 308.305,248.544 296.5,241C 293.366,240.21 290.366,240.543 287.5,242C 283.5,246 279.5,250 275.5,254C 274.5,254.667 273.5,254.667 272.5,254C 268.119,249.955 264.119,245.622 260.5,241C 263.952,236.545 267.786,232.378 272,228.5C 273.257,226.487 274.091,224.321 274.5,222C 270.886,214.603 267.386,207.103 264,199.5C 262.153,193.108 260.153,186.775 258,180.5C 256.681,178.513 254.848,177.346 252.5,177C 245.253,176.815 238.087,176.315 231,175.5C 230.333,169.167 230.333,162.833 231,156.5C 238.087,155.685 245.253,155.185 252.5,155C 253.579,154.044 254.745,153.211 256,152.5C 259,138.827 264.334,126.16 272,114.5C 272.817,111.036 272.483,107.702 271,104.5C 267,100.5 263,96.5 259,92.5C 262.454,86.862 266.954,81.862 272.5,77.5C 277.319,81.8181 281.985,86.3181 286.5,91C 288,91.5 289.5,92 291,92.5C 298.197,89.1519 305.364,85.6519 312.5,82C 319.571,79.8171 326.571,77.4838 333.5,75C 334.46,73.5806 335.293,72.0806 336,70.5C 336.5,63.8417 336.666,57.175 336.5,50.5 Z M 341.5,129.5 C 363.845,128.577 377.679,138.91 383,160.5C 384.094,182.478 373.927,195.978 352.5,201C 330.315,201.658 316.815,191.158 312,169.5C 311.378,148.398 321.211,135.064 341.5,129.5 Z"/></g>
<g><path style="opacity:0.945" fill="white" d="M 338.5,111.5 C 371.71,109.506 392.543,124.506 401,156.5C 403.475,189.732 388.642,210.565 356.5,219C 325.074,221.882 304.574,208.382 295,178.5C 290.033,143.335 304.533,121.002 338.5,111.5 Z M 341.5,129.5 C 321.211,135.064 311.378,148.398 312,169.5C 316.815,191.158 330.315,201.658 352.5,201C 373.927,195.978 384.094,182.478 383,160.5C 377.679,138.91 363.845,128.577 341.5,129.5 Z"/></g>
<g><path style="opacity:0.943" fill="white" d="M 151.5,132.5 C 161.164,132.248 168.997,135.915 175,143.5C 178.941,151.716 182.608,160.049 186,168.5C 187.31,175.571 184.477,179.571 177.5,180.5C 175.366,180.485 173.366,179.985 171.5,179C 167.221,170.68 163.221,162.18 159.5,153.5C 156.7,151.098 153.7,150.932 150.5,153C 143.5,156 136.5,159 129.5,162C 128.106,162.956 127.439,164.289 127.5,166C 130.467,173.9 133.634,181.733 137,189.5C 137.584,192.257 137.25,194.923 136,197.5C 120.5,209 107,222.5 95.5,238C 94,238.5 92.5,239 91,239.5C 82.6765,236.756 74.5098,233.589 66.5,230C 64.8333,229.333 63.1667,229.333 61.5,230C 56.3709,238.927 52.0376,248.26 48.5,258C 48.9031,259.473 49.5697,260.806 50.5,262C 58.2492,265.139 65.9159,268.472 73.5,272C 76.1779,273.841 77.8445,276.341 78.5,279.5C 76.4338,288.365 75.4338,297.365 75.5,306.5C 76.2526,316.841 76.7526,327.175 77,337.5C 75.8333,338.667 74.6667,339.833 73.5,341C 64.9856,344.175 56.8189,348.008 49,352.5C 48.3333,354.167 48.3333,355.833 49,357.5C 52.5528,364.606 55.5528,371.939 58,379.5C 59.255,381.594 61.0884,382.594 63.5,382.5C 70.924,379.957 78.2574,377.123 85.5,374C 89.4525,373.088 93.1191,373.755 96.5,376C 105.861,390.694 117.861,402.694 132.5,412C 136.55,415.915 137.383,420.415 135,425.5C 132.333,431.5 129.667,437.5 127,443.5C 126.313,445.568 126.48,447.568 127.5,449.5C 136.111,453.65 144.944,457.316 154,460.5C 155.812,460.507 157.312,459.84 158.5,458.5C 162,450.833 165.5,443.167 169,435.5C 170.87,432.982 173.37,431.648 176.5,431.5C 185.284,432.928 194.117,433.928 203,434.5C 212.863,433.563 222.696,432.73 232.5,432C 234.624,433.122 236.457,434.622 238,436.5C 241.114,444.556 244.614,452.39 248.5,460C 250.5,460.667 252.5,460.667 254.5,460C 262.126,456.736 269.793,453.569 277.5,450.5C 279.339,448.473 279.839,446.14 279,443.5C 275.278,436.057 272.111,428.39 269.5,420.5C 270.036,418.058 270.869,415.725 272,413.5C 287.167,403 300,390.167 310.5,375C 313.702,373.517 317.036,373.183 320.5,374C 327.743,377.123 335.076,379.957 342.5,382.5C 344.374,382.61 345.874,381.944 347,380.5C 351.353,371.763 354.687,362.763 357,353.5C 356.626,352.584 356.126,351.75 355.5,351C 348.616,347.725 341.616,344.725 334.5,342C 328.975,339.081 327.142,334.581 329,328.5C 330.9,325.599 333.566,323.932 337,323.5C 347.122,326.977 356.955,331.144 366.5,336C 373.685,342.22 376.519,350.053 375,359.5C 372.062,368.312 368.729,376.979 365,385.5C 360.637,395.11 353.137,400.443 342.5,401.5C 334.544,399.69 326.877,397.023 319.5,393.5C 310.689,404.144 301.023,413.978 290.5,423C 292.805,428.444 294.972,433.944 297,439.5C 299.065,451.195 295.232,460.362 285.5,467C 276.246,470.863 266.912,474.529 257.5,478C 247.323,480.16 238.823,477.327 232,469.5C 229.433,462.696 226.099,456.363 222,450.5C 209.173,451.824 196.34,451.824 183.5,450.5C 182.833,450.833 182.167,451.167 181.5,451.5C 178.763,457.543 175.93,463.543 173,469.5C 166.887,476.974 159.054,480.141 149.5,479C 138.604,475.256 127.937,470.923 117.5,466C 109.002,459.509 105.836,451.009 108,440.5C 110.633,434.6 112.633,428.6 114,422.5C 103.5,414.667 94.3333,405.5 86.5,395C 85.1667,394.333 83.8333,394.333 82.5,395C 76.2551,397.971 69.7551,400.137 63,401.5C 55.2663,400.8 48.933,397.467 44,391.5C 39.1136,381.06 34.7803,370.394 31,359.5C 29.4815,350.053 32.3148,342.22 39.5,336C 45.8216,332.339 52.4883,329.505 59.5,327.5C 56.9144,313.176 56.9144,298.842 59.5,284.5C 48.4356,282.223 39.6022,276.556 33,267.5C 30.2993,261.608 29.966,255.608 32,249.5C 35.7238,239.719 39.7238,230.052 44,220.5C 49.1932,214.237 55.8599,210.903 64,210.5C 72.1188,212.43 79.9521,214.93 87.5,218C 95.8333,207 105.5,197.333 116.5,189C 112.259,182.027 109.593,174.527 108.5,166.5C 108.734,157.195 112.734,150.029 120.5,145C 130.932,140.774 141.265,136.607 151.5,132.5 Z"/></g>
<g><path style="opacity:0.939" fill="white" d="M 191.5,232.5 C 196.511,232.334 201.511,232.501 206.5,233C 213.651,239.739 212.985,245.406 204.5,250C 170.825,252.84 151.492,271.007 146.5,304.5C 149.448,339.445 168.281,358.778 203,362.5C 238.16,358.004 256.827,338.004 259,302.5C 264.211,295.061 269.878,294.727 276,301.5C 277.238,332.147 264.738,355.313 238.5,371C 208.186,385.809 179.853,382.809 153.5,362C 129.615,338.29 123.115,310.457 134,278.5C 145.546,253.496 164.713,238.162 191.5,232.5 Z"/></g>
</svg>
